<?xml version="1.0" encoding="UTF-8"?><svg id="_レイヤー_2" xmlns="http://www.w3.org/2000/svg" viewBox="0 0 207.33 165"><defs><style>.cls-1{fill:#eb6da6;}.cls-2{fill:#fff;stroke:#fff;}</style></defs><g id="_レイヤー_1-2"><g><path class="cls-2" d="M90.83,13.5c1.8,0,3,1.2,2.4,3V108.7c0,28.8-17.8,45.8-47.8,45.8-12.8,0-26.2-4-33.4-10-1.2-1-1.8-2.2-1.4-3.6l9.8-27.4c.6-1.8,2.4-1.8,3.8-.8,3.8,3,8.8,5,15,5,7.6,0,12.6-5.2,13.4-13.2V16.5c0-1.8,1.2-3,3-3h35.2Z"/><path class="cls-2" d="M184.16,68.06c3.35-1.23,6.04-3.98,7.39-7.71l12.27-27.46c2.83-5.6,.69-12.59-5.08-16.34C184.38,6.8,164.65,.5,148.43,.5c-17.39,0-32.37,5.1-43.31,14.75-.62,.55-1.22,1.12-1.82,1.69,.32-2.97-.41-5.91-2.16-8.34-2.34-3.24-6.1-5.1-10.31-5.1H55.63c-7.29,0-13,5.71-13,13V103.93c-.5,3.77-2.31,3.77-3.4,3.77-3.45,0-6.41-.96-8.8-2.85l-.19-.15-.2-.14c-2.32-1.66-4.98-2.53-7.7-2.53-5.19,0-9.63,3.2-11.35,8.17L1.1,137.84l-.09,.31c-1.47,5.15,.25,10.4,4.61,14.03,8.98,7.48,24.6,12.32,39.8,12.32,20.16,0,36-6.84,45.96-19.01,.9,1.35,2.07,2.6,3.5,3.7,11.7,9.3,31.52,15.31,50.54,15.31,36.15,0,61.4-22.37,61.4-54.4,0-20.9-10.56-33.71-22.67-42.04Z"/><path class="cls-2" d="M112.03,109.5c.6-2,2-2.6,3.6-1.6,9.2,5.2,20.2,9,27.8,9.6,6.4,0,10.6-3,10.6-7.6,0-11.8-56.2-11.2-56.2-54.8,0-26.8,20.2-44.6,50.6-44.6,14.2,0,32.2,5.8,44.8,14.4,1.6,1,2.2,2.6,1.6,3.6l-12.6,28.2c-.6,2-2,2.6-3.6,1.6-9.8-5.6-21.2-9.8-28.2-10.4-6.2,0-10.2,2.8-10.2,7.2,0,11.8,56.6,11,56.6,55,0,26.6-20.6,44.4-51.4,44.4-16.8,0-34.4-5.2-44.4-13.2-1.6-1.2-2.2-2.6-1.6-3.6l12.6-28.2Z"/></g></g><g id="_レイヤー_2-2"><g><path class="cls-1" d="M90.83,13.5c1.8,0,3,1.2,2.4,3V108.7c0,28.8-17.8,45.8-47.8,45.8-12.8,0-26.2-4-33.4-10-1.2-1-1.8-2.2-1.4-3.6l9.8-27.4c.6-1.8,2.4-1.8,3.8-.8,3.8,3,8.8,5,15,5,7.6,0,12.6-5.2,13.4-13.2V16.5c0-1.8,1.2-3,3-3h35.2Z"/><path class="cls-1" d="M112.03,109.5c.6-2,2-2.6,3.6-1.6,9.2,5.2,20.2,9,27.8,9.6,6.4,0,10.6-3,10.6-7.6,0-11.8-56.2-11.2-56.2-54.8,0-26.8,20.2-44.6,50.6-44.6,14.2,0,32.2,5.8,44.8,14.4,1.6,1,2.2,2.6,1.6,3.6l-12.6,28.2c-.6,2-2,2.6-3.6,1.6-9.8-5.6-21.2-9.8-28.2-10.4-6.2,0-10.2,2.8-10.2,7.2,0,11.8,56.6,11,56.6,55,0,26.6-20.6,44.4-51.4,44.4-16.8,0-34.4-5.2-44.4-13.2-1.6-1.2-2.2-2.6-1.6-3.6l12.6-28.2Z"/></g></g></svg>